<svg version="1.1" id="Layer_1" xmlns="http://www.w3.org/2000/svg" xmlns:xlink="http://www.w3.org/1999/xlink" x="0px" y="0px"
	 width="100%" viewBox="0 0 256 256" enable-background="new 0 0 256 256" xml:space="preserve">
<path fill="#FF7F27" opacity="1.000000" stroke="none" 
	d="
M140.000000,257.000000 
	C93.333336,257.000000 47.166672,257.000000 1.000006,257.000000 
	C1.000004,171.666672 1.000004,86.333351 1.000002,1.000018 
	C86.333321,1.000012 171.666641,1.000012 257.000000,1.000006 
	C257.000000,86.333313 257.000000,171.666626 257.000000,256.999969 
	C218.166672,257.000000 179.333328,257.000000 140.000000,257.000000 
M243.122177,134.667145 
	C246.132843,126.387047 249.748337,118.264091 251.953812,109.774803 
	C253.580490,103.513451 254.392456,96.663254 253.703201,90.276619 
	C252.911072,82.936729 249.136978,77.036568 241.239548,73.942696 
	C222.184921,66.477913 203.461166,58.172421 184.485931,50.497852 
	C180.750275,48.986958 176.489487,48.122608 172.461945,48.090855 
	C145.977356,47.882034 119.488907,47.850758 93.005753,48.135918 
	C89.331734,48.175472 85.500008,49.901241 82.076118,51.544182 
	C79.451935,52.803379 77.636688,55.903217 74.978729,56.912125 
	C57.663944,63.484463 40.207844,69.683662 22.821409,76.068741 
	C19.254786,77.378571 15.463956,78.463554 12.335534,80.507767 
	C3.382843,86.357719 0.515663,97.168610 5.230311,108.661308 
	C19.071270,142.400833 33.073891,176.075882 47.303864,209.653000 
	C52.230446,221.277786 66.910103,229.394333 78.284378,223.160507 
	C81.984955,221.132339 86.197800,220.057816 90.115868,218.403824 
	C100.680275,213.944138 111.763702,212.769394 122.326591,216.846451 
	C142.392731,224.591614 162.102341,233.275558 181.846680,241.831192 
	C188.840714,244.861862 194.541534,243.495682 200.009842,238.655426 
	C205.730713,233.591568 209.462891,227.321060 212.038895,220.239471 
	C222.324371,191.964020 232.625198,163.694138 243.122177,134.667145 
z"/>
<path fill="#FAF9F8" opacity="1.000000" stroke="none" 
	d="
M243.021255,135.044678 
	C232.625198,163.694138 222.324371,191.964020 212.038895,220.239471 
	C209.462891,227.321060 205.730713,233.591568 200.009842,238.655426 
	C194.541534,243.495682 188.840714,244.861862 181.846680,241.831192 
	C162.102341,233.275558 142.392731,224.591614 122.326591,216.846451 
	C111.763702,212.769394 100.680275,213.944138 90.115868,218.403824 
	C86.197800,220.057816 81.984955,221.132339 78.284378,223.160507 
	C66.910103,229.394333 52.230446,221.277786 47.303864,209.653000 
	C33.073891,176.075882 19.071270,142.400833 5.230311,108.661308 
	C0.515663,97.168610 3.382843,86.357719 12.335534,80.507767 
	C15.463956,78.463554 19.254786,77.378571 22.821409,76.068741 
	C40.207844,69.683662 57.663944,63.484463 74.978729,56.912125 
	C77.636688,55.903217 79.451935,52.803379 82.076118,51.544182 
	C85.500008,49.901241 89.331734,48.175472 93.005753,48.135918 
	C119.488907,47.850758 145.977356,47.882034 172.461945,48.090855 
	C176.489487,48.122608 180.750275,48.986958 184.485931,50.497852 
	C203.461166,58.172421 222.184921,66.477913 241.239548,73.942696 
	C249.136978,77.036568 252.911072,82.936729 253.703201,90.276619 
	C254.392456,96.663254 253.580490,103.513451 251.953812,109.774803 
	C249.748337,118.264091 246.132843,126.387047 243.021255,135.044678 
M227.793045,163.218338 
	C234.005844,146.047485 240.333496,128.916718 246.352615,111.678238 
	C247.903793,107.235756 248.911469,102.500160 249.412643,97.818268 
	C250.192719,90.531143 247.488190,81.897987 238.151657,78.400162 
	C218.851959,71.169716 200.040817,62.641582 180.939957,54.865265 
	C178.705994,53.955776 175.669586,53.658920 173.423645,54.380505 
	C165.220718,57.015976 161.031754,63.906994 158.241776,71.309258 
	C149.635803,94.142410 141.353470,117.099892 133.164764,140.087204 
	C127.058022,157.230087 121.081215,174.426056 115.473724,191.736755 
	C113.124741,198.988251 116.767769,208.723419 121.831459,210.848724 
	C142.841873,219.667038 163.891479,228.392059 184.902710,237.208450 
	C189.026596,238.938828 193.226532,238.520035 196.005859,235.535873 
	C200.079453,231.162109 204.399612,226.386826 206.546326,220.963852 
	C213.997391,202.141220 220.555893,182.965256 227.793045,163.218338 
M76.011948,181.466446 
	C75.673195,189.219833 76.414864,196.672836 80.832108,203.454742 
	C82.966881,206.732300 85.152351,209.811844 89.323273,209.926666 
	C97.050354,210.139374 104.787476,209.987564 113.013245,209.987564 
	C107.951622,201.327316 109.142372,192.874588 112.184364,184.552612 
	C120.977173,160.498138 129.682449,136.406403 138.909683,112.517639 
	C146.676697,92.409348 150.481415,70.572075 164.483124,53.011959 
	C140.184906,53.011959 116.042412,52.963100 91.900932,53.097332 
	C89.788284,53.109074 87.395256,53.887024 85.623390,55.054298 
	C78.302490,59.877167 76.184692,67.612846 76.124947,75.581207 
	C75.862793,110.544342 76.011948,145.510574 76.011948,181.466446 
M51.795280,207.628540 
	C52.452145,208.313461 53.192600,208.936356 53.753548,209.692444 
	C65.167152,225.076065 72.024506,221.418808 85.676758,214.449539 
	C75.072105,209.213272 71.584381,199.578140 71.128418,188.851669 
	C70.555809,175.381058 70.777161,161.863556 71.034798,148.373520 
	C71.576157,120.027145 69.473694,91.634293 72.383080,63.369884 
	C54.213066,69.885811 35.914169,76.396980 17.672606,83.065002 
	C15.757654,83.764992 13.782820,85.069626 12.516410,86.641953 
	C7.112527,93.351219 7.358273,101.085976 10.365950,108.415848 
	C23.875166,141.338562 37.726562,174.120880 51.795280,207.628540 
z"/>
<path fill="#010101" opacity="1.000000" stroke="none" 
	d="
M227.623489,163.571014 
	C220.555893,182.965256 213.997391,202.141220 206.546326,220.963852 
	C204.399612,226.386826 200.079453,231.162109 196.005859,235.535873 
	C193.226532,238.520035 189.026596,238.938828 184.902710,237.208450 
	C163.891479,228.392059 142.841873,219.667038 121.831459,210.848724 
	C116.767769,208.723419 113.124741,198.988251 115.473724,191.736755 
	C121.081215,174.426056 127.058022,157.230087 133.164764,140.087204 
	C141.353470,117.099892 149.635803,94.142410 158.241776,71.309258 
	C161.031754,63.906994 165.220718,57.015976 173.423645,54.380505 
	C175.669586,53.658920 178.705994,53.955776 180.939957,54.865265 
	C200.040817,62.641582 218.851959,71.169716 238.151657,78.400162 
	C247.488190,81.897987 250.192719,90.531143 249.412643,97.818268 
	C248.911469,102.500160 247.903793,107.235756 246.352615,111.678238 
	C240.333496,128.916718 234.005844,146.047485 227.623489,163.571014 
M227.539948,98.000359 
	C233.909012,96.546814 237.638443,93.280106 237.996704,88.840981 
	C238.364182,84.287666 235.558411,80.604179 230.425598,78.901428 
	C225.804657,77.368477 221.051727,79.073792 218.268646,83.263214 
	C215.906708,86.818695 216.557968,91.034615 220.246933,94.684021 
	C222.196899,96.613075 224.535355,98.650108 221.910965,101.194839 
	C219.984100,103.063210 217.130646,103.975990 214.656723,105.332970 
	C210.791412,101.405342 207.293121,97.850136 203.793900,94.295845 
	C203.443451,93.939880 203.096252,93.580017 202.732315,93.238174 
	C200.422501,91.068558 199.114639,88.618095 200.167984,85.318184 
	C201.866196,79.997993 198.633682,73.729019 193.456528,72.151062 
	C188.758408,70.719116 182.049789,74.288849 180.294891,79.192497 
	C178.993607,82.828560 180.644638,90.571358 187.137878,92.662285 
	C185.914261,103.430992 184.682571,114.270134 183.451019,125.109291 
	C183.191498,127.393303 182.539734,129.098434 179.813828,129.712921 
	C170.349655,131.846313 166.843857,138.866211 165.667206,147.575104 
	C164.117599,148.046646 162.525482,149.030594 161.086563,148.842484 
	C159.291336,148.607788 156.723602,147.854050 156.070206,146.538986 
	C154.232788,142.840866 151.386978,140.849808 147.648148,141.141037 
	C143.568329,141.458817 140.831741,144.375687 139.343246,148.165909 
	C137.885376,151.878220 140.630722,158.536819 144.056351,159.978409 
	C149.297073,162.183853 153.221588,161.159500 155.272247,156.075058 
	C156.931839,151.960220 160.059448,151.498077 163.512283,151.006668 
	C167.630005,150.420639 166.691849,154.312042 168.000656,156.196396 
	C168.984665,157.613098 169.805099,159.143433 170.637634,160.522583 
	C163.029022,169.334747 155.429657,178.136215 147.872818,186.888412 
	C141.718613,182.985062 136.075882,185.484970 132.782135,190.794601 
	C129.736923,195.703613 130.476578,200.837051 134.169937,204.650909 
	C138.008606,208.614792 142.652481,209.366379 147.819214,205.888229 
	C150.908722,203.808426 153.292770,204.344818 156.226486,205.601791 
	C160.324570,207.357651 164.549789,208.816772 168.724594,210.392395 
	C169.381790,217.726944 172.868912,222.151413 178.637985,222.994324 
	C182.802765,223.602798 189.473267,221.405075 191.291916,215.305603 
	C192.388718,211.627060 191.091080,205.788330 187.966217,203.456345 
	C182.278244,199.211533 178.089111,200.171158 169.444611,207.593307 
	C163.600220,205.279861 157.847855,203.002838 153.396667,201.240891 
	C152.816422,197.379272 152.911118,194.389526 151.846359,191.894608 
	C150.673279,189.145752 151.056351,187.553543 153.001251,185.386673 
	C158.673920,179.066589 164.035416,172.467316 169.523407,165.981308 
	C171.569077,163.563599 173.365738,162.512726 176.998184,164.167206 
	C180.230972,165.639633 184.636429,165.947250 188.139557,165.126526 
	C195.727570,163.348755 200.760361,156.319870 200.997467,148.846710 
	C201.278946,139.974762 197.061142,132.775482 189.125198,130.194595 
	C186.258942,129.262436 185.778763,128.031860 186.056519,125.688538 
	C187.012741,117.621536 188.367981,109.582916 188.895386,101.489449 
	C189.397919,93.777466 189.466156,93.205933 197.093658,91.508820 
	C201.173065,95.611908 205.486130,99.571045 209.278046,103.978546 
	C210.531143,105.435081 211.368500,108.356995 210.796158,110.076363 
	C208.778809,116.136818 210.799454,121.693748 216.983368,125.008690 
	C221.888260,127.638000 228.351089,125.281670 231.766861,119.618652 
	C234.475128,115.128586 233.089279,109.044716 228.169464,105.712753 
	C224.834030,103.453796 223.860153,101.233192 227.539948,98.000359 
z"/>
<path fill="#000000" opacity="1.000000" stroke="none" 
	d="
M76.011948,180.971069 
	C76.011948,145.510574 75.862793,110.544342 76.124947,75.581207 
	C76.184692,67.612846 78.302490,59.877167 85.623390,55.054298 
	C87.395256,53.887024 89.788284,53.109074 91.900932,53.097332 
	C116.042412,52.963100 140.184906,53.011959 164.483124,53.011959 
	C150.481415,70.572075 146.676697,92.409348 138.909683,112.517639 
	C129.682449,136.406403 120.977173,160.498138 112.184364,184.552612 
	C109.142372,192.874588 107.951622,201.327316 113.013245,209.987564 
	C104.787476,209.987564 97.050354,210.139374 89.323273,209.926666 
	C85.152351,209.811844 82.966881,206.732300 80.832108,203.454742 
	C76.414864,196.672836 75.673195,189.219833 76.011948,180.971069 
z"/>
<path fill="#010101" opacity="1.000000" stroke="none" 
	d="
M51.624905,207.291199 
	C37.726562,174.120880 23.875166,141.338562 10.365950,108.415848 
	C7.358273,101.085976 7.112527,93.351219 12.516410,86.641953 
	C13.782820,85.069626 15.757654,83.764992 17.672606,83.065002 
	C35.914169,76.396980 54.213066,69.885811 72.383080,63.369884 
	C69.473694,91.634293 71.576157,120.027145 71.034798,148.373520 
	C70.777161,161.863556 70.555809,175.381058 71.128418,188.851669 
	C71.584381,199.578140 75.072105,209.213272 85.676758,214.449539 
	C72.024506,221.418808 65.167152,225.076065 53.753548,209.692444 
	C53.192600,208.936356 52.452145,208.313461 51.624905,207.291199 
z"/>
<path fill="#FFFFFF" opacity="1.000000" stroke="none" 
	d="
M227.129715,98.019089 
	C223.860153,101.233192 224.834030,103.453796 228.169464,105.712753 
	C233.089279,109.044716 234.475128,115.128586 231.766861,119.618652 
	C228.351089,125.281670 221.888260,127.638000 216.983368,125.008690 
	C210.799454,121.693748 208.778809,116.136818 210.796158,110.076363 
	C211.368500,108.356995 210.531143,105.435081 209.278046,103.978546 
	C205.486130,99.571045 201.173065,95.611908 197.093658,91.508820 
	C189.466156,93.205933 189.397919,93.777466 188.895386,101.489449 
	C188.367981,109.582916 187.012741,117.621536 186.056519,125.688538 
	C185.778763,128.031860 186.258942,129.262436 189.125198,130.194595 
	C197.061142,132.775482 201.278946,139.974762 200.997467,148.846710 
	C200.760361,156.319870 195.727570,163.348755 188.139557,165.126526 
	C184.636429,165.947250 180.230972,165.639633 176.998184,164.167206 
	C173.365738,162.512726 171.569077,163.563599 169.523407,165.981308 
	C164.035416,172.467316 158.673920,179.066589 153.001251,185.386673 
	C151.056351,187.553543 150.673279,189.145752 151.846359,191.894608 
	C152.911118,194.389526 152.816422,197.379272 153.396667,201.240891 
	C157.847855,203.002838 163.600220,205.279861 169.444611,207.593307 
	C178.089111,200.171158 182.278244,199.211533 187.966217,203.456345 
	C191.091080,205.788330 192.388718,211.627060 191.291916,215.305603 
	C189.473267,221.405075 182.802765,223.602798 178.637985,222.994324 
	C172.868912,222.151413 169.381790,217.726944 168.722610,210.397614 
	C164.549789,208.816772 160.324570,207.357651 156.226486,205.601791 
	C153.292770,204.344818 150.908722,203.808426 147.819214,205.888229 
	C142.652481,209.366379 138.008606,208.614792 134.169937,204.650909 
	C130.476578,200.837051 129.736923,195.703613 132.782135,190.794601 
	C136.075882,185.484970 141.718613,182.985062 147.872818,186.888412 
	C155.429657,178.136215 163.029022,169.334747 170.637634,160.522583 
	C169.805099,159.143433 168.984665,157.613098 168.000656,156.196396 
	C166.691849,154.312042 167.630005,150.420639 163.512283,151.006668 
	C160.059448,151.498077 156.931839,151.960220 155.272247,156.075058 
	C153.221588,161.159500 149.297073,162.183853 144.056351,159.978409 
	C140.630722,158.536819 137.885376,151.878220 139.343246,148.165909 
	C140.831741,144.375687 143.568329,141.458817 147.648148,141.141037 
	C151.386978,140.849808 154.232788,142.840866 156.070206,146.538986 
	C156.723602,147.854050 159.291336,148.607788 161.086563,148.842484 
	C162.525482,149.030594 164.117599,148.046646 165.667206,147.575104 
	C166.843857,138.866211 170.349655,131.846313 179.813828,129.712921 
	C182.539734,129.098434 183.191498,127.393303 183.451019,125.109291 
	C184.682571,114.270134 185.914261,103.430992 187.137878,92.662285 
	C180.644638,90.571358 178.993607,82.828560 180.294891,79.192497 
	C182.049789,74.288849 188.758408,70.719116 193.456528,72.151062 
	C198.633682,73.729019 201.866196,79.997993 200.167984,85.318184 
	C199.114639,88.618095 200.422501,91.068558 202.732315,93.238174 
	C203.096252,93.580017 203.443451,93.939880 203.793900,94.295845 
	C207.293121,97.850136 210.791412,101.405342 214.656723,105.332970 
	C217.130646,103.975990 219.984100,103.063210 221.910965,101.194839 
	C224.535355,98.650108 222.196899,96.613075 220.246933,94.684021 
	C216.557968,91.034615 215.906708,86.818695 218.268646,83.263214 
	C221.051727,79.073792 225.804657,77.368477 230.425598,78.901428 
	C235.558411,80.604179 238.364182,84.287666 237.996704,88.840981 
	C237.638443,93.280106 233.909012,96.546814 227.129715,98.019089 
M190.946457,134.413864 
	C184.224960,129.756790 176.523041,131.682922 171.479843,139.063431 
	C167.147095,145.404236 168.985535,155.796707 174.894196,159.989700 
	C181.400314,164.606644 190.161819,163.723724 194.495468,158.014420 
	C200.157547,150.555069 198.825104,140.222931 190.946457,134.413864 
M228.552826,118.961365 
	C230.862564,115.270905 230.496277,111.873978 227.352509,108.855736 
	C224.882202,106.484077 222.306931,104.897362 218.650681,106.774872 
	C215.326004,108.482094 212.407501,110.999779 213.256287,114.561096 
	C213.942108,117.438690 216.431763,120.453552 218.958740,122.185638 
	C222.332474,124.498131 225.560623,122.453232 228.552826,118.961365 
M134.930527,199.456406 
	C137.080734,204.114227 141.224792,206.339157 144.757263,204.732361 
	C148.931061,202.833847 150.958435,197.175888 149.010330,192.982895 
	C147.326324,189.358368 144.408295,187.512817 140.579666,188.240463 
	C136.304794,189.052917 133.811340,193.761932 134.930527,199.456406 
M182.883713,204.354355 
	C176.865417,203.714813 171.077591,208.335663 172.023956,213.024506 
	C172.771027,216.725922 176.925385,220.189423 180.654846,219.969131 
	C184.698181,219.730316 187.852875,217.436035 188.828903,213.761978 
	C189.944168,209.563858 187.854553,206.297089 182.883713,204.354355 
M194.197815,76.020813 
	C190.938339,74.220009 187.497253,74.379196 185.471634,77.328903 
	C184.057068,79.388779 183.129074,82.958412 183.967880,85.062820 
	C184.824280,87.211380 188.076523,89.604935 190.330856,89.656342 
	C192.552536,89.707008 195.357376,87.372055 196.979111,85.342751 
	C199.701797,81.935852 197.358566,78.987572 194.197815,76.020813 
M228.292465,81.001595 
	C223.692352,80.913528 220.242249,83.339424 220.329926,87.622849 
	C220.379974,90.067665 223.250305,93.361900 225.700394,94.623070 
	C228.832321,96.235229 232.054916,94.282143 233.956009,91.182114 
	C236.360748,87.260841 234.814026,84.136124 228.292465,81.001595 
M146.133820,144.333847 
	C145.315323,145.161270 143.996887,145.874374 143.776413,146.838547 
	C143.217712,149.281830 142.190613,152.337967 143.162750,154.205765 
	C144.105804,156.017700 147.940918,158.095917 149.362274,157.468094 
	C151.443146,156.548950 153.531693,153.427155 153.776596,151.054123 
	C154.225510,146.704239 151.209717,144.366974 146.133820,144.333847 
z"/>
<path fill="#000000" opacity="1.000000" stroke="none" 
	d="
M191.233932,134.683304 
	C198.825104,140.222931 200.157547,150.555069 194.495468,158.014420 
	C190.161819,163.723724 181.400314,164.606644 174.894196,159.989700 
	C168.985535,155.796707 167.147095,145.404236 171.479843,139.063431 
	C176.523041,131.682922 184.224960,129.756790 191.233932,134.683304 
z"/>
<path fill="#000000" opacity="1.000000" stroke="none" 
	d="
M228.296219,119.272614 
	C225.560623,122.453232 222.332474,124.498131 218.958740,122.185638 
	C216.431763,120.453552 213.942108,117.438690 213.256287,114.561096 
	C212.407501,110.999779 215.326004,108.482094 218.650681,106.774872 
	C222.306931,104.897362 224.882202,106.484077 227.352509,108.855736 
	C230.496277,111.873978 230.862564,115.270905 228.296219,119.272614 
z"/>
<path fill="#000000" opacity="1.000000" stroke="none" 
	d="
M134.641327,199.169434 
	C133.811340,193.761932 136.304794,189.052917 140.579666,188.240463 
	C144.408295,187.512817 147.326324,189.358368 149.010330,192.982895 
	C150.958435,197.175888 148.931061,202.833847 144.757263,204.732361 
	C141.224792,206.339157 137.080734,204.114227 134.641327,199.169434 
z"/>
<path fill="#000000" opacity="1.000000" stroke="none" 
	d="
M183.170502,204.642853 
	C187.854553,206.297089 189.944168,209.563858 188.828903,213.761978 
	C187.852875,217.436035 184.698181,219.730316 180.654846,219.969131 
	C176.925385,220.189423 172.771027,216.725922 172.023956,213.024506 
	C171.077591,208.335663 176.865417,203.714813 183.170502,204.642853 
z"/>
<path fill="#000000" opacity="1.000000" stroke="none" 
	d="
M194.553772,76.203766 
	C197.358566,78.987572 199.701797,81.935852 196.979111,85.342751 
	C195.357376,87.372055 192.552536,89.707008 190.330856,89.656342 
	C188.076523,89.604935 184.824280,87.211380 183.967880,85.062820 
	C183.129074,82.958412 184.057068,79.388779 185.471634,77.328903 
	C187.497253,74.379196 190.938339,74.220009 194.553772,76.203766 
z"/>
<path fill="#000000" opacity="1.000000" stroke="none" 
	d="
M228.694290,81.011978 
	C234.814026,84.136124 236.360748,87.260841 233.956009,91.182114 
	C232.054916,94.282143 228.832321,96.235229 225.700394,94.623070 
	C223.250305,93.361900 220.379974,90.067665 220.329926,87.622849 
	C220.242249,83.339424 223.692352,80.913528 228.694290,81.011978 
z"/>
<path fill="#000000" opacity="1.000000" stroke="none" 
	d="
M146.489304,144.179474 
	C151.209717,144.366974 154.225510,146.704239 153.776596,151.054123 
	C153.531693,153.427155 151.443146,156.548950 149.362274,157.468094 
	C147.940918,158.095917 144.105804,156.017700 143.162750,154.205765 
	C142.190613,152.337967 143.217712,149.281830 143.776413,146.838547 
	C143.996887,145.874374 145.315323,145.161270 146.489304,144.179474 
z"/>
</svg>